# xmcd
#
# Track frame offsets: 
#        150
#        17633
#        34813
#        57454
#        74869
#        88902
#        106446
#        125344
#        143102
#        160933
#        176451
#        193174
#
# Disc length: 2828 seconds
#
# Revision: 0
# Processed by: cddbd v1.5.2PL0 Copyright (c) Steve Scherf et al.
# Submitted via: ExactAudioCopy v1.0b3
#
DISCID=b10b0a0c
DTITLE=龙飘飘 - 龙飘飘-DTS ES 正品 龙腔飘越30年 绝版珍藏
DYEAR=2006
DGENRE=DTS ES
TTITLE0=爱的诗篇
TTITLE1=多少柔情多少泪
TTITLE2=感恩的心
TTITLE3=美酒加咖啡
TTITLE4=明月千里寄相思
TTITLE5=难忘昨夜情
TTITLE6=女人花
TTITLE7=晚风
TTITLE8=往事只能回味
TTITLE9=舞女
TTITLE10=夜来香
TTITLE11=月儿象柠檬
EXTD=
EXTT0=
EXTT1=
EXTT2=
EXTT3=
EXTT4=
EXTT5=
EXTT6=
EXTT7=
EXTT8=
EXTT9=
EXTT10=
EXTT11=
PLAYORDER=
